<svg xmlns="http://www.w3.org/2000/svg" width="67" height="67" fill="none"><path fill="#4FA4F4" stroke="#4FA4F4" stroke-width="2" d="M41.557 8.08c13.556 4.016 21.596 17.714 18.796 31.307L44.229 34.61c.391-4.844-2.635-9.474-7.482-10.91-4.847-1.435-9.907.8-12.217 5.075L8.742 24.099C13.81 11.177 28.012 4.069 41.557 8.08Zm-1.623 25.258a6.21 6.21 0 0 1-.243 2.187l.012.003a6.175 6.175 0 0 1-7.682 4.172 6.193 6.193 0 0 1-4.414-5.497 6.208 6.208 0 0 1 .243-2.186l-.012-.004a6.175 6.175 0 0 1 7.682-4.172 6.193 6.193 0 0 1 4.414 5.497ZM25.97 59.47C12.412 55.454 4.373 41.756 7.173 28.163l16.124 4.776c-.391 4.844 2.635 9.474 7.482 10.91 4.847 1.435 9.906-.8 12.217-5.075l15.8 4.68c-5.064 12.91-19.27 20.031-32.827 16.016ZM42.853 3.087C25.913-1.931 8.107 7.739 3.088 24.682c-5.018 16.943 4.649 34.751 21.588 39.77 16.94 5.017 34.755-4.638 39.777-21.593 5.022-16.955-4.648-34.751-21.6-39.772Z"/></svg>